<svg xmlns="http://www.w3.org/2000/svg" data-name="Layer 1" viewBox="0 0 100 125" x="0px" y="0px"><title>96all</title><path d="M42.43,6.94h-32a3,3,0,0,0-3,3V61.19H2.12v16H10.5V93.06h16V77.19h47V93.06h16V77.19h8.38v-16H84.53l2.92-.58a3,3,0,0,0,2.35-3.53L80.63,11.23A3,3,0,0,0,77.1,8.88L61.41,12a3,3,0,0,0-2.35,3.53l.75,3.73a3,3,0,0,0-1.37-.35h-13v-9A3,3,0,0,0,42.43,6.94Zm-3,6V61.19h-10V12.94Zm-26,0h10V61.19h-10ZM20.5,87.06h-4V77.19h4Zm63,0h-4V77.19h4Zm8.38-15.87H8.12v-4H91.87ZM75.33,15.35l8,40-9.81,2-8-40ZM68.19,61.19H61.43V27.41ZM55.43,24.94V61.19h-10V24.94Z"/><rect x="31.65" y="16.69" width="5.55" height="6"/><rect x="15.65" y="16.69" width="5.55" height="6"/><rect x="47.65" y="28.69" width="5.55" height="6"/><rect x="31.65" y="48.69" width="5.55" height="6"/><rect x="15.65" y="48.69" width="5.55" height="6"/><rect x="47.65" y="48.69" width="5.55" height="6"/><rect x="68.98" y="19.95" width="5.55" height="6" transform="translate(-3.11 14.53) rotate(-11.32)"/><rect x="74.08" y="45.45" width="5.55" height="6" transform="translate(-8.01 16.03) rotate(-11.32)"/><text x="0" y="115" fill="#000000" font-size="5px" font-weight="bold" font-family="'Helvetica Neue', Helvetica, Arial-Unicode, Arial, Sans-serif">Created by Lakshisha</text><text x="0" y="120" fill="#000000" font-size="5px" font-weight="bold" font-family="'Helvetica Neue', Helvetica, Arial-Unicode, Arial, Sans-serif">from the Noun Project</text></svg>