<?xml version="1.0" encoding="UTF-8" standalone="no"?>
<svg
   xmlns:dc="http://purl.org/dc/elements/1.1/"
   xmlns:cc="http://creativecommons.org/ns#"
   xmlns:rdf="http://www.w3.org/1999/02/22-rdf-syntax-ns#"
   xmlns:svg="http://www.w3.org/2000/svg"
   xmlns="http://www.w3.org/2000/svg"
   xmlns:sodipodi="http://sodipodi.sourceforge.net/DTD/sodipodi-0.dtd"
   xmlns:inkscape="http://www.inkscape.org/namespaces/inkscape"
   version="1.1"
   viewBox="0 0 28 28"
   enable-background="new 0 0 21.9 21.9"
   id="svg4"
   sodipodi:docname="cancel.svg"
   width="28"
   height="28"
   inkscape:version="0.92.2 (5c3e80d, 2017-08-06)">
  <metadata
     id="metadata10">
    <rdf:RDF>
      <cc:Work
         rdf:about="">
        <dc:format>image/svg+xml</dc:format>
        <dc:type
           rdf:resource="http://purl.org/dc/dcmitype/StillImage" />
        <dc:title></dc:title>
      </cc:Work>
    </rdf:RDF>
  </metadata>
  <defs
     id="defs8" />
  <sodipodi:namedview
     pagecolor="#ffffff"
     bordercolor="#666666"
     borderopacity="1"
     objecttolerance="10"
     gridtolerance="10"
     guidetolerance="10"
     inkscape:pageopacity="0"
     inkscape:pageshadow="2"
     inkscape:window-width="1111"
     inkscape:window-height="762"
     id="namedview6"
     showgrid="false"
     inkscape:zoom="10.776256"
     inkscape:cx="10.95"
     inkscape:cy="10.95"
     inkscape:window-x="1769"
     inkscape:window-y="232"
     inkscape:window-maximized="0"
     inkscape:current-layer="svg4" />
  <path
     d="m 16.976695,14.337712 c -0.2,-0.2 -0.2,-0.5 0,-0.7 l 7.5,-7.4999996 c 0.2,-0.2 0.3,-0.5 0.3,-0.7 0,-0.2 -0.1,-0.5 -0.3,-0.7 l -1.4,-1.4 c -0.2,-0.2 -0.5,-0.3 -0.7,-0.3 -0.3,0 -0.5,0.1 -0.7,0.3 l -7.5,7.4999996 c -0.2,0.2 -0.5,0.2 -0.7,0 L 5.9766949,3.3377124 c -0.2,-0.2 -0.5,-0.3 -0.7,-0.3 -0.2,0 -0.5,0.1 -0.7,0.3 l -1.4,1.4 c -0.2,0.2 -0.3,0.5 -0.3,0.7 0,0.2 0.1,0.5 0.3,0.7 l 7.5000001,7.4999996 c 0.2,0.2 0.2,0.5 0,0.7 l -7.5000001,7.5 c -0.2,0.2 -0.3,0.5 -0.3,0.7 0,0.2 0.1,0.5 0.3,0.7 l 1.4,1.4 c 0.2,0.2 0.5,0.3 0.7,0.3 0.2,0 0.5,-0.1 0.7,-0.3 l 7.5000001,-7.5 c 0.2,-0.2 0.5,-0.2 0.7,0 l 7.5,7.5 c 0.2,0.2 0.5,0.3 0.7,0.3 0.2,0 0.5,-0.1 0.7,-0.3 l 1.4,-1.4 c 0.2,-0.2 0.3,-0.5 0.3,-0.7 0,-0.2 -0.1,-0.5 -0.3,-0.7 z"
     id="path2"
     inkscape:connector-curvature="0" />
</svg>
